<svg width="512" height="512" viewBox="0 0 512 512" fill="none" xmlns="http://www.w3.org/2000/svg">
<g clip-path="url(#clip0_197_442)">
<rect width="512" height="512" rx="76" fill="#2196F3"/>
<path d="M450.783 320.984L267.048 318.887L255.05 300.227L376.335 260.231L368.095 234.628L240.088 276.794L224.114 251.986L269.939 165.268L246.232 152.973L207.562 226.093L103.118 63L81 77.3927L193.25 252.926L159.134 317.513L130.078 317.223L129.789 343.911L145.257 344.201L99.9373 429.544L123.428 442.057L175.181 344.418L252.52 345.213L318.945 449L341.641 434.607L284.612 345.792L450.711 347.672L451 320.984H450.783ZM189.275 318.091L209.803 278.891L214.067 285.545L229.029 308.761L235.173 318.598L189.347 318.091H189.275Z" fill="white"/>
</g>
<defs>
<clipPath id="clip0_197_442">
<rect width="512" height="512" fill="white"/>
</clipPath>
</defs>
</svg>
