<svg width="370" height="386" viewBox="0 0 370 386" fill="none" xmlns="http://www.w3.org/2000/svg">
<path d="M369.783 257.984L186.048 255.887L174.05 237.227L295.335 197.231L287.095 171.628L159.088 213.794L143.114 188.986L188.939 102.268L165.232 89.9726L126.562 163.093L22.1176 0L0 14.3927L112.25 189.926L78.1344 254.513L49.0779 254.223L48.7888 280.911L64.2567 281.201L18.9373 366.544L42.4282 379.057L94.1805 281.418L171.52 282.213L237.945 386L260.641 371.607L203.612 282.792L369.711 284.672L370 257.984H369.783ZM108.275 255.091L128.803 215.891L133.067 222.545L148.029 245.761L154.173 255.598L108.347 255.091H108.275Z" fill="black"/>
</svg>
