<svg width="63" height="66" viewBox="0 0 63 66" fill="none" xmlns="http://www.w3.org/2000/svg">
<path d="M62.9631 44.1113L31.6785 43.7527L29.6355 40.5621L50.2868 33.7234L48.8838 29.3457L27.0879 36.5554L24.368 32.3137L32.1707 17.4862L28.134 15.3839L21.5497 27.8865L3.76597 0L0 2.46093L19.1129 32.4744L13.304 43.5177L8.35652 43.4682L8.30729 48.0315L10.941 48.0809L3.22446 62.6734L7.22426 64.8128L16.0361 48.118L29.2047 48.2541L40.5149 66L44.3794 63.5391L34.6691 48.353L62.9508 48.6745L63 44.1113H62.9631ZM18.436 43.6166L21.9312 36.914L22.6574 38.0517L25.2049 42.0214L26.251 43.7032L18.4483 43.6166H18.436Z" fill="#2196F3"/>
</svg>
